<?xml version="1.0" encoding="utf-8"?>
<!-- Generator: Adobe Illustrator 16.0.0, SVG Export Plug-In . SVG Version: 6.00 Build 0)  -->
<!DOCTYPE svg PUBLIC "-//W3C//DTD SVG 1.1//EN" "http://www.w3.org/Graphics/SVG/1.1/DTD/svg11.dtd">
<svg version="1.1" id="Layer_1" xmlns="http://www.w3.org/2000/svg" xmlns:xlink="http://www.w3.org/1999/xlink" x="0px" y="0px"
	 width="123.7px" height="94.6px" viewBox="0 0 123.7 94.6" enable-background="new 0 0 123.7 94.6" xml:space="preserve">
<g>
	<g>
		
			<linearGradient id="SVGID_1_" gradientUnits="userSpaceOnUse" x1="-294.9341" y1="577.9885" x2="-249.1386" y2="545.3735" gradientTransform="matrix(1 0 0 -1 334 589.6001)">
			<stop  offset="0" style="stop-color:#79C143"/>
			<stop  offset="1" style="stop-color:#010101"/>
		</linearGradient>
		<path fill="url(#SVGID_1_)" d="M83.6,12.5c0,0,0.699,0.3,1.4,1.3c0.699,1,1.699,2.5,2.6,4.6C88.1,19.5,88.5,20.7,88.799,22
			C88.9,22.3,89,22.7,89.1,23c0.1,0.399,0.1,0.7,0.199,1.1c0,0.2,0.101,0.4,0.101,0.601v0.1v0.1l0,0V25v0.3
			c0,0.4,0.101,0.8,0.101,1.1c0,0.4,0.1,0.801,0.1,1.2c0,0.4,0,0.9,0,1.3c0,0.4,0,0.9,0,1.301c0,0.5-0.1,0.899-0.1,1.3
			C89.4,32,89.4,32.4,89.299,32.9c0,0.5-0.199,0.9-0.299,1.4c-0.101,0.5-0.201,0.9-0.301,1.4S88.4,36.6,88.2,37.1
			c-1.3,3.8-3.5,7.7-7,10.8c-0.4,0.4-0.9,0.801-1.3,1.2c-0.5,0.3-0.899,0.7-1.399,1l-0.701,0.5c-0.299,0.2-0.5,0.3-0.799,0.5
			C76.5,51.4,76,51.7,75.4,52c-0.5,0.3-1.101,0.5-1.7,0.7L73,53.2C72.7,53.3,72.4,53.4,72.1,53.5c-0.6,0.2-1.2,0.399-1.7,0.6
			c-0.601,0.101-1.2,0.3-1.8,0.4l-0.9,0.2l-0.9,0.1C66.2,54.9,65.6,54.9,64.9,55c-0.601,0-1.2,0-1.899,0h-0.9l-1-0.101
			c-2.6-0.1-5-0.6-7.5-1.399c-4.9-1.601-9.4-4.4-12.9-8.4c-1.8-2-3.2-4.2-4.3-6.6c-1.1-2.4-1.8-5-2.2-7.601v-0.1v-0.2v-0.2v-0.5
			L34.1,29L34,28v-1c0-0.7,0-1.3,0.1-2c0.1-0.601,0.2-1.3,0.3-1.9c0.4-2.6,1.1-5.1,2.2-7.399c0.5-1.2,1.2-2.2,1.8-3.301
			c0.3-0.5,0.7-1,1.1-1.5L40,10.2l0.6-0.7C41,9,41.4,8.6,41.8,8.1c0.4-0.399,0.9-0.8,1.3-1.2l0.7-0.6l0.7-0.5c0.5-0.4,0.9-0.7,1.4-1
			c3.9-2.6,8.2-4,12.1-4.5c0.2,0,0.5-0.1,0.7-0.1h0.2c0,0,0.2,0,0.1,0l0,0h0.1h0.4c0.5,0,0.9,0,1.4,0s0.9,0,1.4,0
			c0.5,0,1,0.1,1.4,0.1c0.5,0,0.9,0.1,1.4,0.1S66,0.6,66.4,0.7C67.2,0.9,68.1,1,68.799,1.3C69.6,1.6,70.299,1.8,71,2.1
			C71.7,2.4,72.299,2.7,73,3c1.299,0.6,2.299,1.3,3.299,1.899c0.5,0.301,0.9,0.7,1.301,1C78,6.2,78.4,6.5,78.7,6.8
			c0.7,0.6,1.2,1.1,1.6,1.6C81.2,9.3,81.5,9.8,81.5,9.8L81.299,10c0,0-0.5-0.5-1.399-1.2c-0.5-0.4-1-0.9-1.7-1.3
			C77.799,7.3,77.4,7,77,6.8C76.6,6.6,76.2,6.2,75.7,6s-1-0.5-1.5-0.8C73.7,4.9,73.1,4.7,72.5,4.5C71.9,4.3,71.299,4,70.6,3.8
			c-0.7-0.2-1.4-0.4-2.1-0.6C67.799,3,67,3,66.2,2.8c-0.8-0.2-1.6-0.2-2.4-0.2c-0.399,0-0.799,0-1.199,0c-0.4,0-0.9,0.101-1.3,0.101
			c-0.5,0-0.9,0.1-1.4,0.1h-0.4h-0.1l0,0c-0.1,0,0.1,0,0,0h-0.2l-0.7,0.1c-3.6,0.601-7.3,2-10.7,4.4c-3.3,2.5-6.4,5.7-8.3,9.8
			c-1.1,2-1.7,4.2-2.2,6.5c-0.1,0.601-0.2,1.2-0.3,1.7c-0.1,0.6-0.1,1.1-0.1,1.7L36.8,27.9v0.9v0.9v0.5V30.4V30.5c0,0,0,0.1,0,0v0.1
			c0.2,1.2,0.3,2.4,0.6,3.601c0.2,0.6,0.2,1.199,0.4,1.8l0.6,1.7c0.9,2.3,2,4.5,3.5,6.5c1.5,1.899,3.3,3.8,5.3,5.199
			c2.1,1.4,4.3,2.601,6.6,3.4c0.6,0.2,1.2,0.3,1.8,0.5c0.6,0.1,1.2,0.3,1.8,0.4c0.6,0.1,1.2,0.199,1.8,0.3c0.6,0,1.2,0,1.8,0h0.9
			l0.899-0.101C63.4,53.8,64,53.8,64.6,53.7c0.6-0.101,1.199-0.2,1.699-0.301l0.9-0.199L68,52.9c0.6-0.199,1.1-0.3,1.699-0.5
			c0.5-0.199,1.1-0.5,1.6-0.699c0.301-0.101,0.5-0.2,0.801-0.301L72.799,51c0.5-0.3,1-0.5,1.5-0.8c0.5-0.301,0.9-0.601,1.4-0.9
			c0.2-0.2,0.5-0.3,0.7-0.5L77,48.3c0.399-0.3,0.799-0.7,1.299-1c0.4-0.4,0.801-0.7,1.101-1.1c3-2.9,5.101-6.4,6.399-9.801
			C86,36,86.1,35.6,86.299,35.1C86.4,34.7,86.5,34.2,86.7,33.8C86.799,33.4,87,33,87,32.5c0.1-0.4,0.1-0.8,0.199-1.3
			c0.2-0.801,0.2-1.601,0.301-2.4c0-0.4,0.1-0.8,0.1-1.2c0-0.399,0-0.8,0-1.2c0-3-0.6-5.6-1.2-7.699C85.799,16.6,85,15,84.5,14
			C83.9,13,83.6,12.5,83.6,12.5L83.6,12.5z"/>
		<g>
			<path fill="#FFFFFF" d="M62.799,36.1C62.799,36.1,62.9,36.1,62.799,36.1L62.799,36.1z"/>
		</g>
		<g>
			<g>
				<path fill="#231F20" d="M82.299,11.8c-0.399,0-0.799-0.1-1.299,0c-0.4,0.1-0.9,0.2-1.301,0.4c-0.4,0.199-0.8,0.5-1.199,0.899
					C78.4,13.2,78.299,13.3,78.2,13.4c0,0.101-0.1,0.101-0.1,0.2L78,13.8C77.9,13.9,77.9,14,77.799,14.2
					c-0.1,0.1-0.1,0.199-0.1,0.399C77,16.7,76.2,19,75.4,21.6c-0.8,2.601-1.8,5.3-2.7,8.3C72.5,30.6,72.2,31.4,72,32.1
					C71.9,32.3,71.9,32.5,71.799,32.7L71.7,33c0,0.1-0.1,0.2-0.1,0.3c-0.1,0.2-0.1,0.3-0.2,0.4l0,0l0,0
					c-0.101-0.101-0.101-0.301-0.2-0.5c0-0.101,0-0.2-0.1-0.301L71,32.6C71,32.4,70.9,32.2,70.9,32c-0.2-0.8-0.3-1.601-0.5-2.4
					c-0.7-3.3-1.399-6.7-2.101-10.2c0-0.199-0.1-0.5-0.199-0.699c0-0.101-0.1-0.301-0.2-0.4s-0.101-0.3-0.3-0.5
					c-0.1-0.1-0.2-0.2-0.4-0.3c-0.1,0-0.1,0-0.199-0.101c-0.101,0-0.101,0-0.201,0c-0.1,0-0.1,0-0.199,0s-0.1,0-0.2,0.101
					c-0.2,0.1-0.3,0.2-0.399,0.3L65.9,17.9L65.799,18C65.7,18.2,65.6,18.3,65.6,18.4c-0.1,0.101-0.1,0.301-0.1,0.4
					c-0.101,0.3-0.101,0.5-0.201,0.7l-0.1,0.7C65.1,20.6,65,21.1,64.9,21.5c-0.399,1.7-0.8,3.5-1.2,5.2
					c-0.3,1.399-0.6,2.699-0.9,4.1c-0.699-3.4-1.299-6.7-2-9.9c-0.1-0.399-0.2-0.8-0.2-1.199c0-0.2-0.1-0.5-0.2-0.801
					c0-0.1-0.1-0.3-0.2-0.399c-0.1-0.2-0.2-0.3-0.4-0.601c-0.1-0.1-0.3-0.3-0.6-0.399C59.1,17.5,59,17.4,59,17.4c-0.1,0-0.2,0-0.3,0
					c-0.2,0-0.4,0-0.5,0.101c-0.1,0-0.2,0.1-0.2,0.1c-0.1,0-0.1,0.101-0.2,0.101c-0.1,0.1-0.2,0.1-0.2,0.199L57.5,18h-0.3
					c0,0.1-0.1,0.1-0.1,0.2c-0.3,0.399-0.3,0.6-0.4,0.899c0,0.101-0.1,0.2-0.1,0.4l-0.1,0.3c0,0.2-0.1,0.4-0.1,0.6
					C56,22,55.6,23.5,55.3,25c-0.4,1.5-0.7,3-1.1,4.399c0,0.2-0.1,0.301-0.1,0.5c-0.2-0.8-0.5-1.5-0.7-2.199c-0.3-1-0.6-2-0.9-2.9
					c-0.1-0.5-0.3-0.9-0.4-1.3C52,23.3,52,23.1,51.9,22.9c0-0.1-0.1-0.3-0.1-0.399c-0.1-0.101-0.1-0.3-0.2-0.4c-0.2-0.5-0.5-1-1-1.5
					c-0.2-0.2-0.6-0.5-0.9-0.6c-0.4-0.2-0.8-0.3-1.3-0.2c-0.2,0-0.5,0.1-0.7,0.1C47.6,19.9,47.5,20,47.4,20c0,0-0.1,0-0.1,0.1
					c-0.1,0-0.1,0.101-0.2,0.101c-0.1,0.1-0.2,0.1-0.3,0.199L46.7,20.5l0,0l0,0l-0.1,0.1l0,0L46.5,20.7l0,0
					C46.3,20.9,46.1,21,46,21.2c-0.6,0.6-0.9,0.899-0.9,0.899l2.7,2.7c0,0,0.3-0.3,0.8-0.8c0,0,0,0,0,0.1c0.1,0.2,0.1,0.4,0.2,0.601
					c0.1,0.399,0.3,0.8,0.4,1.3c0.3,0.899,0.6,1.899,1,2.899c0.4,1,0.7,2.101,1.1,3.301c0.1,0.3,0.2,0.6,0.3,0.899
					c0.1,0.101,0.1,0.3,0.2,0.5l0.1,0.2v0.1l0.1,0.2c0.1,0.2,0.2,0.4,0.3,0.7c0.1,0.2,0.3,0.5,0.7,0.8c0.1,0.101,0.2,0.2,0.4,0.3
					c0.1,0,0.2,0.101,0.3,0.101c0.1,0,0.2,0.1,0.3,0.1c0.2,0,0.5,0,0.7,0c0.1,0,0.2-0.1,0.3-0.1s0.2-0.101,0.3-0.101
					c0.3-0.199,0.5-0.399,0.6-0.6c0.1-0.1,0.1-0.2,0.2-0.2c0-0.1,0.1-0.2,0.1-0.2c0.1-0.3,0.2-0.5,0.3-0.699
					c0-0.101,0.1-0.2,0.1-0.301V33.7V33.6c0.1-0.3,0.1-0.7,0.2-1c0.1-0.7,0.3-1.399,0.4-2.1c0.3-1.4,0.6-2.9,0.9-4.4
					c0.2-0.8,0.3-1.6,0.5-2.5c0.6,2.7,1.3,5.601,2,8.4c0.1,0.399,0.2,0.899,0.3,1.3l0.1,0.3v0.2c0,0.1,0,0.1,0.1,0.2
					c0.1,0.3,0.2,0.5,0.3,0.899c0,0,0,0.101,0.1,0.101c0,0,0.1,0.1,0.1,0.2c0.1,0.1,0.2,0.199,0.4,0.399c0.1,0,0.1,0.101,0.2,0.101
					c0.1,0,0.1,0.1,0.2,0.1c0.2,0,0.3,0,0.5,0c0.3-0.1,0.5-0.2,0.7-0.4C63.799,35.2,63.9,35,64,34.8c0.1-0.2,0.1-0.3,0.199-0.4
					c0-0.1,0.1-0.3,0.1-0.399c0-0.101,0.101-0.3,0.101-0.4l0.101-0.7c0.299-1.8,0.699-3.5,1-5.3c0.299-1.8,0.699-3.5,1-5.3
					c0.1-0.4,0.199-0.9,0.299-1.3l0.101-0.4c0.8,3.3,1.601,6.5,2.399,9.601C69.5,31,69.7,31.8,69.9,32.6C69.9,32.8,70,33,70,33.2
					l0.1,0.3c0,0.1,0.1,0.2,0.1,0.3c0.1,0.2,0.2,0.4,0.301,0.7c0.1,0.1,0.199,0.2,0.299,0.399C70.9,35,71,35,71.1,35.1
					c0.1,0,0.199,0.101,0.4,0.101c0.1,0,0.299-0.101,0.299-0.101C71.9,35,72,35,72,34.9c0.1-0.1,0.199-0.199,0.299-0.3
					C72.4,34.4,72.5,34.2,72.6,34c0-0.101,0.1-0.2,0.1-0.3l0.1-0.301C72.9,33.2,72.9,33,73,32.8C73.2,32,73.4,31.3,73.7,30.6
					c0.9-3,1.7-5.8,2.5-8.3c0.801-2.6,1.5-4.9,2.1-7c0-0.1,0.101-0.3,0.101-0.4c0.101-0.1,0.101-0.199,0.2-0.3l0.1-0.2
					c0-0.1,0.1-0.1,0.1-0.199C78.9,14.1,79,14,79,13.9C79.299,13.5,79.7,13.2,80.1,13s0.8-0.4,1.199-0.5
					c0.4-0.101,0.801-0.101,1.201,0c2.899,0.3,5.1,8.2,5.1,8.2S85.7,12,82.299,11.8z M48.1,23.3L48.1,23.3
					C48.1,23.3,48,23.2,48.1,23.3z M49.1,23.2L49.1,23.2L49.1,23.2L49.1,23.2L49.1,23.2z M53.2,33.1L53.2,33.1
					C53.2,33,53.2,33.1,53.2,33.1L53.2,33.1z M57.7,19.7L57.7,19.7L57.7,19.7z M62,33.4L62,33.4L62,33.4z M66.4,18.9L66.4,18.9
					L66.4,18.9z M71.2,33.7L71.2,33.7L71.2,33.7z"/>
				<g>
					<g>
						<circle fill="#231F20" cx="67.4" cy="40.5" r="2.6"/>
					</g>
					<g>
						<circle fill="#231F20" cx="58.6" cy="40.5" r="2.6"/>
					</g>
				</g>
			</g>
		</g>
	</g>
	<g enable-background="new    ">
		<path d="M12.983,73.226c-0.714-0.782-1.458-1.317-2.232-1.607c-0.774-0.288-1.696-0.434-2.768-0.434
			c-1.037,0-1.926,0.103-2.666,0.307c-0.739,0.204-1.348,0.497-1.823,0.88c-0.477,0.383-0.825,0.838-1.046,1.364
			c-0.221,0.527-0.332,1.123-0.332,1.786c0,0.646,0.11,1.186,0.332,1.619c0.221,0.434,0.561,0.8,1.02,1.097
			c0.459,0.298,1.05,0.553,1.773,0.766c0.723,0.213,1.585,0.421,2.589,0.625c1.003,0.204,1.913,0.425,2.729,0.663
			c0.816,0.238,1.509,0.535,2.079,0.893c0.569,0.357,1.007,0.8,1.313,1.326c0.306,0.527,0.459,1.19,0.459,1.989
			c0,1.479-0.565,2.61-1.696,3.393s-2.691,1.174-4.68,1.174c-1.463,0-2.759-0.226-3.89-0.677c-1.131-0.45-2.181-1.16-3.15-2.129
			l0.383-0.332c0.918,0.952,1.917,1.642,2.997,2.066c1.08,0.425,2.308,0.638,3.686,0.638c1.802,0,3.227-0.336,4.272-1.008
			c1.045-0.672,1.568-1.688,1.568-3.048c0-0.681-0.119-1.254-0.357-1.722c-0.238-0.468-0.604-0.871-1.097-1.212
			c-0.494-0.34-1.123-0.629-1.888-0.867s-1.667-0.459-2.704-0.663c-1.003-0.187-1.892-0.387-2.666-0.6
			c-0.774-0.212-1.428-0.484-1.964-0.816c-0.536-0.331-0.94-0.748-1.211-1.249c-0.272-0.502-0.408-1.127-0.408-1.875
			c0-0.782,0.148-1.476,0.446-2.079c0.297-0.604,0.723-1.113,1.275-1.53c0.552-0.416,1.215-0.73,1.989-0.943S6.963,70.7,7.933,70.7
			c1.156,0,2.164,0.166,3.022,0.497c0.858,0.332,1.645,0.89,2.359,1.671L12.983,73.226z"/>
		<path d="M31.475,70.828v18.109h-0.51v-9.004H18.39v9.004h-0.51V70.828h0.51v8.596h12.575v-8.596H31.475z"/>
		<path d="M43.667,89.066c-1.259,0-2.402-0.264-3.431-0.791s-1.917-1.216-2.666-2.066c-0.749-0.85-1.326-1.827-1.734-2.933
			s-0.612-2.236-0.612-3.393c0-1.207,0.217-2.363,0.65-3.469s1.029-2.083,1.786-2.934c0.756-0.85,1.649-1.526,2.678-2.027
			c1.029-0.502,2.138-0.753,3.329-0.753c1.241,0,2.38,0.268,3.418,0.804c1.037,0.535,1.926,1.237,2.666,2.104
			c0.739,0.867,1.313,1.849,1.722,2.945c0.408,1.097,0.612,2.207,0.612,3.329c0,1.225-0.217,2.389-0.65,3.494
			s-1.029,2.079-1.785,2.921c-0.757,0.842-1.646,1.514-2.666,2.015C45.962,88.815,44.856,89.066,43.667,89.066z M35.734,79.883
			c0,1.122,0.2,2.206,0.6,3.252c0.399,1.046,0.948,1.973,1.645,2.78s1.53,1.45,2.5,1.926c0.969,0.477,2.032,0.714,3.188,0.714
			c1.173,0,2.249-0.25,3.227-0.752c0.978-0.502,1.811-1.161,2.5-1.977c0.689-0.816,1.225-1.743,1.607-2.78
			c0.383-1.037,0.574-2.092,0.574-3.163c0-1.122-0.2-2.206-0.6-3.252c-0.4-1.046-0.957-1.973-1.671-2.78
			c-0.714-0.808-1.552-1.449-2.512-1.926c-0.961-0.476-2.002-0.714-3.125-0.714c-1.173,0-2.249,0.251-3.227,0.752
			c-0.978,0.502-1.815,1.16-2.512,1.977c-0.698,0.816-1.237,1.743-1.62,2.78C35.925,77.757,35.734,78.812,35.734,79.883z"/>
		<path d="M55.833,88.938V70.828h7.371c0.731,0,1.412,0.157,2.041,0.472s1.169,0.731,1.619,1.25c0.451,0.519,0.805,1.105,1.059,1.76
			c0.256,0.654,0.383,1.322,0.383,2.002c0,0.715-0.119,1.403-0.357,2.066s-0.573,1.25-1.007,1.76s-0.952,0.918-1.556,1.225
			c-0.604,0.306-1.271,0.459-2.002,0.459h-7.041v7.116H55.833z M56.343,81.312h7.041c0.68,0,1.296-0.145,1.849-0.434
			c0.552-0.289,1.016-0.672,1.39-1.148c0.374-0.476,0.664-1.012,0.867-1.606c0.205-0.596,0.307-1.199,0.307-1.812
			c0-0.646-0.119-1.267-0.357-1.861c-0.238-0.596-0.565-1.123-0.982-1.582c-0.416-0.459-0.904-0.829-1.466-1.109
			s-1.157-0.421-1.786-0.421h-6.861V81.312z"/>
		<path d="M77.589,88.938V70.828H78.1v17.6h11.375v0.51H77.589z"/>
		<path d="M98.199,70.828h0.459l7.882,18.109h-0.562l-2.831-6.479h-9.463l-2.832,6.479h-0.561L98.199,70.828z M102.917,81.948
			l-4.489-10.381l-4.54,10.381H102.917z"/>
		<path d="M122.456,84.244c0,0.63-0.119,1.225-0.357,1.785c-0.238,0.562-0.562,1.059-0.97,1.492s-0.889,0.778-1.44,1.033
			c-0.553,0.255-1.136,0.383-1.748,0.383h-8.392V70.828h8.009c0.629,0,1.199,0.136,1.709,0.408c0.511,0.271,0.944,0.625,1.301,1.059
			c0.357,0.434,0.634,0.927,0.83,1.479c0.195,0.553,0.293,1.11,0.293,1.671c0,0.919-0.234,1.76-0.701,2.525
			c-0.469,0.766-1.102,1.326-1.9,1.684c0.51,0.153,0.973,0.383,1.39,0.688s0.773,0.663,1.071,1.071
			c0.297,0.408,0.523,0.854,0.676,1.339C122.378,83.237,122.456,83.735,122.456,84.244z M110.059,71.338v8.213h7.346
			c0.561,0,1.071-0.118,1.53-0.356s0.854-0.553,1.187-0.944c0.331-0.391,0.59-0.829,0.777-1.313s0.281-0.981,0.281-1.492
			c0-0.544-0.09-1.063-0.269-1.556s-0.425-0.931-0.739-1.313s-0.697-0.685-1.148-0.905c-0.45-0.221-0.939-0.332-1.467-0.332H110.059
			z M121.945,84.244c0-0.544-0.099-1.066-0.294-1.568s-0.463-0.948-0.803-1.339c-0.34-0.392-0.744-0.702-1.212-0.932
			s-0.974-0.344-1.518-0.344h-8.06v8.366h7.881c0.562,0,1.084-0.119,1.568-0.357c0.485-0.238,0.91-0.553,1.275-0.943
			c0.365-0.392,0.65-0.838,0.855-1.34C121.842,85.286,121.945,84.772,121.945,84.244z"/>
	</g>
	<g enable-background="new    ">
		<path d="M4.325,67.754c-0.116,0.078-0.223,0.136-0.32,0.175c-0.097,0.039-0.211,0.075-0.343,0.11
			c-0.132,0.035-0.279,0.053-0.442,0.053c-0.279,0-0.523-0.086-0.732-0.256c-0.209-0.171-0.314-0.396-0.314-0.675v-4.93H1.302
			v-0.232h0.872v-2.104h0.232v2.104H3.86v0.232H2.407v4.93c0.016,0.225,0.104,0.397,0.268,0.518c0.163,0.12,0.345,0.18,0.546,0.18
			c0.132,0,0.256-0.013,0.372-0.04s0.219-0.059,0.308-0.093c0.089-0.035,0.159-0.068,0.209-0.1c0.05-0.03,0.08-0.05,0.087-0.058
			L4.325,67.754z"/>
		<path d="M10.092,68.033H9.859v-3.36c0-1.689-0.558-2.534-1.674-2.534c-0.279,0-0.554,0.055-0.826,0.163s-0.521,0.256-0.75,0.441
			c-0.229,0.187-0.428,0.405-0.599,0.657s-0.294,0.525-0.372,0.819v3.813H5.406v-8.487h0.232v4.011
			c0.124-0.247,0.277-0.475,0.459-0.68s0.384-0.38,0.604-0.523c0.221-0.143,0.457-0.254,0.709-0.331s0.506-0.116,0.762-0.116
			c0.628,0,1.104,0.232,1.43,0.697c0.325,0.465,0.488,1.155,0.488,2.069V68.033z"/>
		<path d="M14.44,68.15c-0.396,0-0.77-0.083-1.122-0.25c-0.353-0.166-0.661-0.396-0.924-0.686c-0.264-0.291-0.473-0.628-0.628-1.012
			c-0.155-0.384-0.232-0.792-0.232-1.227c0-0.426,0.074-0.825,0.221-1.197c0.147-0.372,0.351-0.698,0.61-0.977
			c0.259-0.279,0.562-0.498,0.907-0.657c0.345-0.159,0.715-0.238,1.11-0.238c0.403,0,0.781,0.081,1.133,0.244
			s0.659,0.384,0.918,0.663c0.26,0.278,0.467,0.608,0.622,0.987c0.155,0.38,0.232,0.787,0.232,1.222v0.128h-5.522
			c0.031,0.387,0.123,0.749,0.273,1.087c0.151,0.337,0.347,0.63,0.587,0.877c0.24,0.249,0.518,0.444,0.832,0.588
			s0.645,0.215,0.994,0.215c0.232,0,0.459-0.031,0.68-0.093c0.221-0.063,0.428-0.149,0.622-0.262
			c0.194-0.112,0.364-0.246,0.512-0.401c0.147-0.155,0.264-0.325,0.349-0.512l0.221,0.059c-0.085,0.209-0.208,0.401-0.366,0.575
			c-0.159,0.175-0.345,0.325-0.558,0.453c-0.213,0.128-0.446,0.229-0.698,0.303S14.703,68.15,14.44,68.15z M17.044,64.917
			c-0.023-0.402-0.108-0.774-0.255-1.116c-0.147-0.341-0.339-0.633-0.576-0.877s-0.51-0.437-0.82-0.576s-0.643-0.209-1-0.209
			c-0.357,0-0.69,0.069-1,0.209s-0.583,0.334-0.82,0.582s-0.424,0.542-0.563,0.883c-0.14,0.342-0.221,0.71-0.245,1.104H17.044z"/>
	</g>
</g>
</svg>
