<?xml version="1.0" encoding="utf-8"?>
<!-- Generator: Adobe Illustrator 16.0.0, SVG Export Plug-In . SVG Version: 6.00 Build 0)  -->
<!DOCTYPE svg PUBLIC "-//W3C//DTD SVG 1.1//EN" "http://www.w3.org/Graphics/SVG/1.1/DTD/svg11.dtd">
<svg version="1.1" id="Layer_1" xmlns="http://www.w3.org/2000/svg" xmlns:xlink="http://www.w3.org/1999/xlink" x="0px" y="0px"
	 width="251.8px" height="60px" viewBox="0 0 251.8 60" style="enable-background:new 0 0 251.8 60;" xml:space="preserve">
<style type="text/css">
<![CDATA[
	.st0{fill:#8DC63F;}
	.st1{fill:#BE1E2D;}
	.st2{fill:none;stroke:#000000;stroke-width:3;stroke-miterlimit:10;}
	.st3{fill:#FFFFFF;}
]]>
</style>
<g>
	<g>
		<path d="M74.7,40.2l0.9,3.3c0.2,0.3,0.5,0.6,1.1,0.9s1.1,0.5,1.9,0.7s1.4,0.3,2.2,0.3c1.7,0,2.9-0.3,3.7-0.9
			c0.7-0.6,1.1-1.5,1.1-2.5c0-0.8-0.2-1.4-0.7-2c-0.5-0.6-1.2-1.1-2.2-1.6c-1-0.5-2.3-1.1-4-1.7c-2.4-0.9-4.2-2-5.3-3.2
			c-1.1-1.2-1.7-2.8-1.7-4.8c0-1.3,0.4-2.5,1.2-3.5c0.8-1,2-1.8,3.4-2.3c1.4-0.6,3.1-0.8,4.9-0.8c1.4,0,2.6,0.1,3.7,0.3
			c1.1,0.2,2.1,0.5,3.2,0.9l0.8,0.3v5.6H86l-1-3c-0.2-0.4-0.7-0.7-1.5-1c-0.8-0.3-1.7-0.4-2.7-0.4c-1.4,0-2.5,0.3-3.2,0.9
			c-0.8,0.6-1.1,1.3-1.1,2.2c0,0.8,0.2,1.5,0.7,2.1c0.4,0.6,1,1,1.7,1.4c0.7,0.3,1.6,0.8,2.8,1.2l0.9,0.4c1.7,0.7,3.1,1.4,4.2,2
			c1.1,0.6,2,1.4,2.7,2.4c0.7,1,1.1,2.2,1.1,3.6c0,1.5-0.4,2.7-1.2,3.8c-0.8,1.1-2,2-3.5,2.6c-1.5,0.6-3.3,0.9-5.4,0.9
			c-1.6,0-3.2-0.2-4.9-0.6c-1.7-0.4-3.1-0.9-4.1-1.3v-5.7H74.7z"/>
		<path d="M93.5,45.1V13.7l-3.8-0.5v-2.2l7.7-1h0.1l1.1,0.8l0,10.7l-0.2,4.1c1-0.9,2.4-1.8,4.1-2.6c1.7-0.8,3.4-1.2,5.2-1.2
			c1.9,0,3.5,0.4,4.6,1.1c1.1,0.7,1.8,1.9,2.3,3.4c0.4,1.5,0.6,3.5,0.6,6.1v12.6l3.3,0.4v2.4h-11.5v-2.4l3-0.4V32.5
			c0-1.7-0.1-3.1-0.4-4.1c-0.2-1-0.7-1.7-1.4-2.2s-1.7-0.7-2.9-0.7c-1.1,0-2.2,0.2-3.4,0.7c-1.2,0.5-2.3,1-3.2,1.8v17.2l3.2,0.4v2.4
			H90.8v-2.4L93.5,45.1z"/>
		<path d="M136.7,23.6c1.8,1.1,3.1,2.7,3.9,4.6c0.9,2,1.3,4.2,1.3,6.7c0,2.7-0.6,5-1.7,7c-1.2,2-2.7,3.5-4.6,4.5
			c-1.9,1-3.9,1.5-6.1,1.5c-2.7,0-4.9-0.6-6.6-1.7c-1.8-1.1-3.1-2.7-3.9-4.6c-0.9-2-1.3-4.2-1.3-6.7c0-2.7,0.6-5,1.7-6.9
			c1.2-2,2.7-3.5,4.6-4.5s3.9-1.6,6-1.6C132.7,21.9,134.9,22.5,136.7,23.6z M134.6,27.6c-1-1.9-2.6-2.9-4.8-2.9
			c-2.1,0-3.7,0.8-4.8,2.5c-1.1,1.6-1.6,4.1-1.6,7.3c0,3.2,0.5,5.8,1.5,7.7c1,1.9,2.6,2.9,4.8,2.9c4.2,0,6.3-3.3,6.3-9.8
			C136.1,32.1,135.6,29.5,134.6,27.6z"/>
		<path d="M151.9,47.7c-0.8-0.1-1.5-0.2-2.1-0.4l0.1,4.1v4.7l4.7,0.5v2.5h-13.3v-2.5l3.4-0.5V26.6l-3.3-0.9v-2.9l6.7-0.9h0.1l1,0.9
			v2.7c0.9-1,2-1.9,3.4-2.6c1.3-0.7,2.9-1.1,4.5-1.1c1.9,0,3.6,0.4,5.1,1.3s2.8,2.2,3.7,4c0.9,1.8,1.4,4.1,1.4,6.9
			c0,2.5-0.5,4.9-1.6,7c-1.1,2.1-2.6,3.8-4.7,5c-2,1.2-4.4,1.8-7,1.8C153.5,47.9,152.7,47.9,151.9,47.7z M150,44
			c0.2,0.4,0.7,0.7,1.6,0.9s1.8,0.4,2.8,0.4c1.5,0,2.8-0.4,3.9-1.1c1.1-0.7,2-1.9,2.7-3.5c0.7-1.6,1-3.6,1-6.1
			c0-2.1-0.3-3.8-0.9-5.2c-0.6-1.4-1.4-2.4-2.4-3c-1-0.7-2.2-1-3.5-1c-1.1,0-2.1,0.2-3,0.7c-0.9,0.4-1.7,1-2.2,1.5V44z"/>
		<path class="st0" d="M165.3,24.3v-2.4h11.4v2.4l-3.6,0.6l3.8,13.2l1.3,5.7l1.2-5.7l4.6-16.2h4.9l4.7,16.2l1.3,5.7l1.4-5.6
			l3.7-13.3l-3.5-0.6v-2.4h9.9v2.4l-2.6,0.6l-7.2,23h-4.8l-4.9-16.3l-1.2-5.4l-0.9,5.4L180,47.9h-4.7l-7.5-23L165.3,24.3z"/>
		<path class="st0" d="M219.2,30.6c0-1.2-0.1-2.2-0.4-2.9c-0.3-0.7-0.8-1.2-1.5-1.5c-0.7-0.3-1.8-0.5-3.1-0.5
			c-2.6,0-5.3,0.6-8.1,1.9h0l-1.1-2.1c0.4-0.4,1.2-0.8,2.4-1.4c1.2-0.6,2.5-1.1,4-1.5c1.5-0.4,2.9-0.7,4.2-0.7c2.2,0,4,0.3,5.2,0.9
			c1.3,0.6,2.2,1.5,2.8,2.8c0.6,1.3,0.8,3,0.8,5.1v14.2h2.8v2.2c-2.2,0.5-3.9,0.8-5,0.8c-0.6,0-1.1-0.1-1.5-0.2
			c-0.3-0.1-0.6-0.3-0.7-0.7c-0.2-0.3-0.2-0.8-0.2-1.5v-1.1c-0.8,0.8-1.9,1.6-3.2,2.3c-1.3,0.7-2.8,1.1-4.5,1.1
			c-1.5,0-2.8-0.3-4-0.8c-1.2-0.5-2.1-1.4-2.9-2.5c-0.7-1.1-1.1-2.5-1.1-4.2c0-2,0.7-3.7,2.1-5c1.4-1.3,3.3-2.3,5.6-2.9
			s4.8-0.9,7.6-0.9V30.6z M219.2,34.2c-2.2,0-4.1,0.3-5.5,0.8c-1.4,0.5-2.5,1.2-3.1,2c-0.6,0.8-1,1.8-1,2.9c0,1.6,0.4,2.8,1.2,3.5
			s1.9,1.1,3.2,1.1c0.7,0,1.6-0.2,2.6-0.6c1-0.4,1.9-0.9,2.6-1.5V34.2z"/>
		<path class="st0" d="M227.9,28.6c1.1-2.1,2.6-3.7,4.7-4.9c2-1.2,4.4-1.8,7.2-1.8c1.3,0,2.7,0.1,4.1,0.4v-8.5l-4.6-0.5v-2.2
			l8.5-0.9h0.1l1.1,0.8v33.7h2.7v2.4c-1,0.2-1.9,0.4-2.6,0.6c-0.8,0.1-1.6,0.2-2.4,0.2c-0.6,0-1.1-0.1-1.4-0.2s-0.6-0.3-0.8-0.7
			c-0.2-0.3-0.3-0.8-0.3-1.5v-1.2c-0.9,1-2.1,1.9-3.4,2.5c-1.3,0.7-2.8,1-4.4,1c-1.9,0-3.6-0.5-5.1-1.4c-1.5-0.9-2.8-2.3-3.7-4.2
			c-0.9-1.9-1.4-4.1-1.4-6.8C226.3,33,226.8,30.7,227.9,28.6z M243.9,26c-0.2-0.4-0.8-0.7-1.6-1s-1.8-0.4-2.8-0.4
			c-2.3,0-4.1,0.9-5.5,2.6c-1.4,1.7-2.1,4.4-2.1,8c0,2.1,0.3,3.8,0.9,5.2c0.6,1.4,1.4,2.4,2.4,3c1,0.7,2.1,1,3.4,1
			c1.1,0,2.1-0.2,3.1-0.7c0.9-0.5,1.7-1,2.3-1.6V26z"/>
	</g>
	<g>
		<path class="st2" d="M30,58.5C14.3,58.5,1.5,45.7,1.5,30S14.3,1.5,30,1.5c15.7,0,28.5,12.8,28.5,28.5c0,6.7-2.3,12.8-6.1,17.7"/>
		<g>
			<path class="st1" d="M30.3,28.6c-4.5,0-8.2-3.7-8.2-8.2s3.7-8.2,8.2-8.2c4.5,0,8.2,3.7,8.2,8.2S34.8,28.6,30.3,28.6z M30.3,12.8
				c-4.2,0-7.6,3.4-7.6,7.6c0,4.2,3.4,7.6,7.6,7.6c4.2,0,7.6-3.4,7.6-7.6C37.9,16.2,34.5,12.8,30.3,12.8z"/>
			<rect x="17.5" y="20.6" class="st1" width="25.9" height="25.9"/>
			<polygon class="st1" points="43.4,20.6 17.5,46.5 43.4,46.5 			"/>
		</g>
		<g>
			<g>
				<path d="M48.2,49.7c-0.1,0.3-0.4,0.5-0.7,0.5H43l2.4,5.7c0.2,0.4,0,0.8-0.4,1l-2.1,0.9c-0.4,0.2-0.8,0-1-0.4L39.6,52l-3.7,3.7
					c-0.1,0.1-0.3,0.2-0.5,0.2c-0.1,0-0.2,0-0.3-0.1c-0.3-0.1-0.5-0.4-0.5-0.7V37.3c0-0.3,0.2-0.6,0.5-0.7c0.1,0,0.2-0.1,0.3-0.1
					c0.2,0,0.4,0.1,0.5,0.2l12.2,12.2C48.3,49.1,48.4,49.5,48.2,49.7z"/>
				<path class="st3" d="M42.6,58.8c-0.7,0-1.3-0.4-1.6-1l-1.7-4.1l-2.7,2.7c-0.5,0.5-1.2,0.6-1.8,0.4c-0.6-0.3-1-0.9-1-1.6V37.3
					c0-0.7,0.4-1.3,1.1-1.6c0.2-0.1,0.4-0.1,0.6-0.1c0.5,0,0.9,0.2,1.2,0.5l12.1,12.1c0.5,0.5,0.6,1.2,0.4,1.9c-0.3,0.6-0.9,1-1.6,1
					h-3.1l1.8,4.4c0.4,0.9,0,1.8-0.9,2.2l-2.1,0.9C43,58.7,42.8,58.8,42.6,58.8z M39.9,50.3l2.7,6.5l1.8-0.8l-2.9-6.8h5.5L35.5,37.7
					v17L39.9,50.3z"/>
			</g>
		</g>
	</g>
</g>
</svg>
