<?xml version="1.0" encoding="utf-8"?>
<!-- Generator: Adobe Illustrator 16.0.0, SVG Export Plug-In . SVG Version: 6.00 Build 0)  -->
<!DOCTYPE svg PUBLIC "-//W3C//DTD SVG 1.1//EN" "http://www.w3.org/Graphics/SVG/1.1/DTD/svg11.dtd">
<svg version="1.1" id="Layer_1" xmlns="http://www.w3.org/2000/svg" xmlns:xlink="http://www.w3.org/1999/xlink" x="0px" y="0px"
	 width="218.5px" height="54.8px" viewBox="0 0 218.5 54.8" style="enable-background:new 0 0 218.5 54.8;" xml:space="preserve">
<style type="text/css">
<![CDATA[
	.st0{fill:url(#SVGID_1_);}
	.st1{fill:#FFFFFF;}
	.st2{fill:#010101;}
]]>
</style>
<g>
	<g>
		
			<linearGradient id="SVGID_1_" gradientUnits="userSpaceOnUse" x1="-988.7866" y1="-163.6147" x2="-959.0712" y2="-184.7778" gradientTransform="matrix(1 0 0 -1 1002 -146.4004)">
			<stop  offset="0" style="stop-color:#90C742"/>
			<stop  offset="0.9091" style="stop-color:#161B10"/>
			<stop  offset="1" style="stop-color:#030303"/>
		</linearGradient>
		<path class="st0" d="M49.6,12.3c0,0,0.7,0.3,1.4,1.3s1.7,2.5,2.6,4.6c0.5,1.1,0.9,2.3,1.2,3.6c0.1,0.3,0.2,0.7,0.3,1
			c0.1,0.4,0.1,0.7,0.2,1.1c0,0.2,0.1,0.4,0.1,0.6v0.1v0.1l0,0v0.1v0.3c0,0.4,0.1,0.8,0.1,1.1c0,0.4,0.1,0.8,0.1,1.2s0,0.9,0,1.3
			c0,0.4,0,0.9,0,1.3c0,0.5-0.1,0.9-0.1,1.3c-0.1,0.5-0.1,0.9-0.2,1.4c0,0.5-0.2,0.9-0.3,1.4c-0.1,0.5-0.2,0.9-0.3,1.4
			c-0.1,0.5-0.3,0.9-0.5,1.4c-1.3,3.8-3.5,7.7-7,10.8c-0.4,0.4-0.9,0.8-1.3,1.2c-0.5,0.3-0.9,0.7-1.4,1l-0.7,0.5
			c-0.3,0.2-0.5,0.3-0.8,0.5c-0.5,0.3-1,0.6-1.6,0.9c-0.5,0.3-1.1,0.5-1.7,0.7L39,53c-0.3,0.1-0.6,0.2-0.9,0.3
			c-0.6,0.2-1.2,0.4-1.7,0.6c-0.6,0.1-1.2,0.3-1.8,0.4l-0.9,0.2l-0.9,0.1c-0.6,0.1-1.2,0.1-1.9,0.2c-0.6,0-1.2,0-1.9,0h-0.9l-1-0.1
			c-2.6-0.1-5-0.6-7.5-1.4c-4.9-1.6-9.4-4.4-12.9-8.4c-1.8-2-3.2-4.2-4.3-6.6c-1.1-2.4-1.8-5-2.2-7.6v-0.1v-0.2v-0.2v-0.5l-0.1-0.9
			l-0.1-1v-1c0-0.7,0-1.3,0.1-2c0.1-0.6,0.2-1.3,0.3-1.9c0.4-2.6,1.1-5.1,2.2-7.4c0.5-1.2,1.2-2.2,1.8-3.3c0.3-0.5,0.7-1,1.1-1.5
			L6,10l0.6-0.7C7,8.8,7.4,8.4,7.8,7.9c0.4-0.4,0.9-0.8,1.3-1.2l0.7-0.6l0.7-0.5c0.5-0.4,0.9-0.7,1.4-1c3.9-2.6,8.2-4,12.1-4.5
			c0.2,0,0.5-0.1,0.7-0.1h0.2c0,0,0.2,0,0.1,0l0,0h0.1h0.4c0.5,0,0.9,0,1.4,0s0.9,0,1.4,0s1,0.1,1.4,0.1c0.5,0,0.9,0.1,1.4,0.1
			s0.9,0.2,1.3,0.3c0.8,0.2,1.7,0.3,2.4,0.6c0.8,0.3,1.5,0.5,2.2,0.8c0.7,0.3,1.3,0.6,2,0.9c1.3,0.6,2.3,1.3,3.3,1.9
			c0.5,0.3,0.9,0.7,1.3,1C44,6,44.4,6.3,44.7,6.6c0.7,0.6,1.2,1.1,1.6,1.6c0.9,0.9,1.2,1.4,1.2,1.4l-0.2,0.2c0,0-0.5-0.5-1.4-1.2
			c-0.5-0.4-1-0.9-1.7-1.3c-0.4-0.2-0.8-0.5-1.2-0.7c-0.4-0.2-0.8-0.6-1.3-0.8c-0.5-0.2-1-0.5-1.5-0.8s-1.1-0.5-1.7-0.7
			c-0.6-0.2-1.2-0.5-1.9-0.7c-0.7-0.2-1.4-0.4-2.1-0.6S33,2.8,32.2,2.6c-0.8-0.2-1.6-0.2-2.4-0.2c-0.4,0-0.8,0-1.2,0
			c-0.4,0-0.9,0.1-1.3,0.1c-0.5,0-0.9,0.1-1.4,0.1h-0.4h-0.1l0,0c-0.1,0,0.1,0,0,0h-0.2l-0.7,0.1c-3.6,0.6-7.3,2-10.7,4.4
			c-3.3,2.5-6.4,5.7-8.3,9.8c-1.1,2-1.7,4.2-2.2,6.5C3.2,24,3.1,24.6,3,25.1c-0.1,0.6-0.1,1.1-0.1,1.7l-0.1,0.9v0.9v0.9V30v0.2v0.1
			c0,0,0,0.1,0,0v0.1C3,31.6,3.1,32.8,3.4,34c0.2,0.6,0.2,1.2,0.4,1.8l0.6,1.7c0.9,2.3,2,4.5,3.5,6.5c1.5,1.9,3.3,3.8,5.3,5.2
			c2.1,1.4,4.3,2.6,6.6,3.4c0.6,0.2,1.2,0.3,1.8,0.5c0.6,0.1,1.2,0.3,1.8,0.4c0.6,0.1,1.2,0.2,1.8,0.3c0.6,0,1.2,0,1.8,0h0.9
			l0.9-0.1c0.6-0.1,1.2-0.1,1.8-0.2c0.6-0.1,1.2-0.2,1.7-0.3l0.9-0.2l0.8-0.3c0.6-0.2,1.1-0.3,1.7-0.5c0.5-0.2,1.1-0.5,1.6-0.7
			c0.3-0.1,0.5-0.2,0.8-0.3l0.7-0.4c0.5-0.3,1-0.5,1.5-0.8c0.5-0.3,0.9-0.6,1.4-0.9c0.2-0.2,0.5-0.3,0.7-0.5l0.6-0.5
			c0.4-0.3,0.8-0.7,1.3-1c0.4-0.4,0.8-0.7,1.1-1.1c3-2.9,5.1-6.4,6.4-9.8c0.2-0.4,0.3-0.8,0.5-1.3c0.1-0.4,0.2-0.9,0.4-1.3
			c0.1-0.4,0.3-0.8,0.3-1.3c0.1-0.4,0.1-0.8,0.2-1.3c0.2-0.8,0.2-1.6,0.3-2.4c0-0.4,0.1-0.8,0.1-1.2s0-0.8,0-1.2
			c0-3-0.6-5.6-1.2-7.7c-0.6-2.1-1.4-3.7-1.9-4.7C49.9,12.8,49.6,12.3,49.6,12.3L49.6,12.3z"/>
		<g>
			<path class="st1" d="M28.8,35.9C28.8,35.9,28.9,35.9,28.8,35.9L28.8,35.9z"/>
		</g>
		<g>
			<g>
				<path class="st2" d="M48.3,11.6c-0.4,0-0.8-0.1-1.3,0c-0.4,0.1-0.9,0.2-1.3,0.4c-0.4,0.2-0.8,0.5-1.2,0.9
					c-0.1,0.1-0.2,0.2-0.3,0.3c0,0.1-0.1,0.1-0.1,0.2L44,13.6c-0.1,0.1-0.1,0.2-0.2,0.4c-0.1,0.1-0.1,0.2-0.1,0.4
					c-0.7,2.1-1.5,4.4-2.3,7c-0.8,2.6-1.8,5.3-2.7,8.3c-0.2,0.7-0.5,1.5-0.7,2.2c-0.1,0.2-0.1,0.4-0.2,0.6l-0.1,0.3
					c0,0.1-0.1,0.2-0.1,0.3c-0.1,0.2-0.1,0.3-0.2,0.4l0,0l0,0c-0.1-0.1-0.1-0.3-0.2-0.5c0-0.1,0-0.2-0.1-0.3L37,32.4
					c0-0.2-0.1-0.4-0.1-0.6c-0.2-0.8-0.3-1.6-0.5-2.4c-0.7-3.3-1.4-6.7-2.1-10.2c0-0.2-0.1-0.5-0.2-0.7c0-0.1-0.1-0.3-0.2-0.4
					c-0.1-0.1-0.1-0.3-0.3-0.5c-0.1-0.1-0.2-0.2-0.4-0.3c-0.1,0-0.1,0-0.2-0.1c-0.1,0-0.1,0-0.2,0s-0.1,0-0.2,0
					c-0.1,0-0.1,0-0.2,0.1c-0.2,0.1-0.3,0.2-0.4,0.3l-0.1,0.1l-0.1,0.1c-0.1,0.2-0.2,0.3-0.2,0.4c-0.1,0.1-0.1,0.3-0.1,0.4
					c-0.1,0.3-0.1,0.5-0.2,0.7L31.2,20c-0.1,0.4-0.2,0.9-0.3,1.3c-0.4,1.7-0.8,3.5-1.2,5.2c-0.3,1.4-0.6,2.7-0.9,4.1
					c-0.7-3.4-1.3-6.7-2-9.9c-0.1-0.4-0.2-0.8-0.2-1.2c0-0.2-0.1-0.5-0.2-0.8c0-0.1-0.1-0.3-0.2-0.4c-0.1-0.2-0.2-0.3-0.4-0.6
					c-0.1-0.1-0.3-0.3-0.6-0.4c-0.1,0-0.2-0.1-0.2-0.1c-0.1,0-0.2,0-0.3,0c-0.2,0-0.4,0-0.5,0.1c-0.1,0-0.2,0.1-0.2,0.1
					c-0.1,0-0.1,0.1-0.2,0.1c-0.1,0.1-0.2,0.1-0.2,0.2l-0.1,0.1h-0.3c0,0.1-0.1,0.1-0.1,0.2c-0.3,0.4-0.3,0.6-0.4,0.9
					c0,0.1-0.1,0.2-0.1,0.4l-0.1,0.3c0,0.2-0.1,0.4-0.1,0.6c-0.4,1.6-0.8,3.1-1.1,4.6c-0.4,1.5-0.7,3-1.1,4.4c0,0.2-0.1,0.3-0.1,0.5
					c-0.2-0.8-0.5-1.5-0.7-2.2c-0.3-1-0.6-2-0.9-2.9c-0.1-0.5-0.3-0.9-0.4-1.3c-0.1-0.2-0.1-0.4-0.2-0.6c0-0.1-0.1-0.3-0.1-0.4
					c-0.1-0.1-0.1-0.3-0.2-0.4c-0.2-0.5-0.5-1-1-1.5c-0.2-0.2-0.6-0.5-0.9-0.6c-0.4-0.2-0.8-0.3-1.3-0.2c-0.2,0-0.5,0.1-0.7,0.1
					c-0.1,0-0.2,0.1-0.3,0.1c0,0-0.1,0-0.1,0.1c-0.1,0-0.1,0.1-0.2,0.1c-0.1,0.1-0.2,0.1-0.3,0.2l-0.1,0.1l0,0l0,0l-0.1,0.1l0,0
					l-0.1,0.1l0,0c-0.2,0.2-0.4,0.3-0.5,0.5c-0.6,0.6-0.9,0.9-0.9,0.9l2.7,2.7c0,0,0.3-0.3,0.8-0.8c0,0,0,0,0,0.1
					c0.1,0.2,0.1,0.4,0.2,0.6c0.1,0.4,0.3,0.8,0.4,1.3c0.3,0.9,0.6,1.9,1,2.9c0.4,1,0.7,2.1,1.1,3.3c0.1,0.3,0.2,0.6,0.3,0.9
					c0.1,0.1,0.1,0.3,0.2,0.5l0.1,0.2v0.1l0.1,0.2c0.1,0.2,0.2,0.4,0.3,0.7c0.1,0.2,0.3,0.5,0.7,0.8c0.1,0.1,0.2,0.2,0.4,0.3
					c0.1,0,0.2,0.1,0.3,0.1c0.1,0,0.2,0.1,0.3,0.1c0.2,0,0.5,0,0.7,0c0.1,0,0.2-0.1,0.3-0.1c0.1,0,0.2-0.1,0.3-0.1
					c0.3-0.2,0.5-0.4,0.6-0.6c0.1-0.1,0.1-0.2,0.2-0.2c0-0.1,0.1-0.2,0.1-0.2c0.1-0.3,0.2-0.5,0.3-0.7c0-0.1,0.1-0.2,0.1-0.3v-0.2
					v-0.1c0.1-0.3,0.1-0.7,0.2-1c0.1-0.7,0.3-1.4,0.4-2.1c0.3-1.4,0.6-2.9,0.9-4.4c0.2-0.8,0.3-1.6,0.5-2.5c0.6,2.7,1.3,5.6,2,8.4
					c0.1,0.4,0.2,0.9,0.3,1.3l0.1,0.3v0.2c0,0.1,0,0.1,0.1,0.2c0.1,0.3,0.2,0.5,0.3,0.9c0,0,0,0.1,0.1,0.1c0,0,0.1,0.1,0.1,0.2
					c0.1,0.1,0.2,0.2,0.4,0.4c0.1,0,0.1,0.1,0.2,0.1c0.1,0,0.1,0.1,0.2,0.1c0.2,0,0.3,0,0.5,0c0.3-0.1,0.5-0.2,0.7-0.4
					c0.2-0.2,0.3-0.4,0.4-0.6c0.1-0.2,0.1-0.3,0.2-0.4c0-0.1,0.1-0.3,0.1-0.4s0.1-0.3,0.1-0.4l0.1-0.7c0.3-1.8,0.7-3.5,1-5.3
					c0.3-1.8,0.7-3.5,1-5.3c0.1-0.4,0.2-0.9,0.3-1.3l0.1-0.4c0.8,3.3,1.6,6.5,2.4,9.6c0.2,0.8,0.4,1.6,0.6,2.4
					c0,0.2,0.1,0.4,0.1,0.6l0.1,0.3c0,0.1,0.1,0.2,0.1,0.3c0.1,0.2,0.2,0.4,0.3,0.7c0.1,0.1,0.2,0.2,0.3,0.4
					c0.1,0.1,0.2,0.1,0.3,0.2c0.1,0,0.2,0.1,0.4,0.1c0.1,0,0.3-0.1,0.3-0.1c0.1-0.1,0.2-0.1,0.2-0.2c0.1-0.1,0.2-0.2,0.3-0.3
					c0.1-0.2,0.2-0.4,0.3-0.6c0-0.1,0.1-0.2,0.1-0.3l0.1-0.3c0.1-0.2,0.1-0.4,0.2-0.6c0.2-0.8,0.4-1.5,0.7-2.2
					c0.9-3,1.7-5.8,2.5-8.3c0.8-2.6,1.5-4.9,2.1-7c0-0.1,0.1-0.3,0.1-0.4c0.1-0.1,0.1-0.2,0.2-0.3l0.1-0.2c0-0.1,0.1-0.1,0.1-0.2
					c0.1-0.1,0.2-0.2,0.2-0.3c0.3-0.4,0.7-0.7,1.1-0.9c0.4-0.2,0.8-0.4,1.2-0.5c0.4-0.1,0.8-0.1,1.2,0c2.9,0.3,5.1,8.2,5.1,8.2
					S51.7,11.8,48.3,11.6z M14.1,23.1L14.1,23.1C14.1,23.1,14,23,14.1,23.1z M15.1,23L15.1,23L15.1,23L15.1,23L15.1,23z M19.2,32.9
					L19.2,32.9C19.2,32.8,19.2,32.9,19.2,32.9L19.2,32.9z M23.7,19.5L23.7,19.5L23.7,19.5z M28,33.2L28,33.2L28,33.2z M32.4,18.7
					L32.4,18.7L32.4,18.7z M37.2,33.5L37.2,33.5L37.2,33.5z"/>
				<g>
					<g>
						<circle class="st2" cx="33.4" cy="40.3" r="2.6"/>
					</g>
					<g>
						<circle class="st2" cx="24.6" cy="40.3" r="2.6"/>
					</g>
				</g>
			</g>
		</g>
	</g>
	<g>
		<path d="M73.4,18.3c0,0-0.1,0.1-0.2,0.1c-0.1,0.1-0.2,0.1-0.3,0.1c-0.1,0-0.3,0.1-0.5,0.1s-0.3,0.1-0.5,0.1c-0.2,0-0.4,0-0.5-0.1
			s-0.3-0.1-0.5-0.3s-0.2-0.2-0.3-0.4c-0.1-0.2-0.1-0.3-0.1-0.6V12h-1v-0.6h1V8.9h0.7v2.5h1.7V12h-1.7v5.3c0,0.3,0.1,0.5,0.3,0.6
			c0.2,0.1,0.4,0.2,0.6,0.2c0.3,0,0.5,0,0.7-0.1c0.2-0.1,0.3-0.2,0.4-0.2L73.4,18.3z"/>
		<path d="M80.5,18.6h-0.7v-4c0-1.8-0.6-2.7-1.8-2.7c-0.3,0-0.6,0.1-0.9,0.2c-0.3,0.1-0.5,0.3-0.8,0.5c-0.2,0.2-0.5,0.4-0.6,0.7
			c-0.2,0.3-0.3,0.6-0.4,0.9v4.5h-0.7V8.5h0.7v4.6c0.3-0.6,0.7-1,1.2-1.4s1.1-0.5,1.7-0.5c0.4,0,0.7,0.1,1,0.2
			c0.3,0.1,0.5,0.4,0.7,0.6s0.3,0.6,0.4,1c0.1,0.4,0.1,0.8,0.1,1.3V18.6z"/>
		<path d="M85.7,18.8c-0.5,0-1-0.1-1.4-0.3c-0.4-0.2-0.8-0.5-1.1-0.8c-0.3-0.3-0.6-0.7-0.8-1.2c-0.2-0.5-0.3-0.9-0.3-1.5
			c0-0.5,0.1-1,0.3-1.4c0.2-0.4,0.4-0.8,0.7-1.2c0.3-0.3,0.7-0.6,1.1-0.8s0.9-0.3,1.4-0.3c0.5,0,1,0.1,1.4,0.3
			c0.4,0.2,0.8,0.5,1.1,0.8c0.3,0.3,0.6,0.7,0.7,1.2c0.2,0.4,0.3,0.9,0.3,1.4c0,0,0,0.1,0,0.2c0,0.1,0,0.1,0,0.1h-6.3
			c0,0.4,0.1,0.8,0.3,1.2s0.4,0.7,0.6,0.9s0.5,0.5,0.9,0.6s0.7,0.2,1.1,0.2c0.3,0,0.5,0,0.7-0.1c0.2-0.1,0.5-0.2,0.7-0.3
			c0.2-0.1,0.4-0.3,0.6-0.4c0.2-0.2,0.3-0.4,0.4-0.6l0.6,0.2c-0.1,0.3-0.3,0.5-0.5,0.7c-0.2,0.2-0.4,0.4-0.7,0.6s-0.6,0.3-0.9,0.4
			C86.3,18.7,86,18.8,85.7,18.8z M88.5,14.7c0-0.4-0.1-0.8-0.3-1.2c-0.2-0.4-0.4-0.7-0.6-0.9c-0.3-0.3-0.5-0.5-0.9-0.6
			c-0.3-0.1-0.7-0.2-1.1-0.2c-0.4,0-0.7,0.1-1.1,0.2c-0.3,0.1-0.6,0.3-0.9,0.6c-0.3,0.3-0.5,0.6-0.6,0.9c-0.2,0.4-0.2,0.7-0.3,1.2
			H88.5z"/>
	</g>
	<g>
		<path d="M83.5,26.3c-1.4-1.6-3.5-2.4-6.1-2.4c-2.2,0-3.8,0.4-4.7,1.2c-1,0.8-1.5,1.9-1.5,3.3c0,0.7,0.1,1.3,0.4,1.8
			c0.3,0.5,0.6,0.9,1.2,1.2s1.2,0.6,2,0.8c0.8,0.2,1.8,0.5,2.9,0.7c1.2,0.3,2.3,0.5,3.2,0.8s1.8,0.7,2.5,1.1c0.7,0.5,1.2,1,1.6,1.7
			c0.4,0.7,0.5,1.5,0.5,2.5s-0.2,1.8-0.6,2.6c-0.4,0.7-0.9,1.3-1.6,1.8c-0.7,0.5-1.5,0.9-2.5,1.1c-1,0.3-2.1,0.4-3.2,0.4
			c-3.5,0-6.4-1.1-8.8-3.3l0.8-1.3c0.9,1,2.1,1.8,3.4,2.3c1.4,0.6,2.9,0.9,4.6,0.9c1.9,0,3.5-0.4,4.6-1.1c1.1-0.7,1.6-1.8,1.6-3.2
			c0-0.7-0.1-1.4-0.4-1.9c-0.3-0.5-0.7-1-1.3-1.3c-0.6-0.4-1.3-0.7-2.2-1c-0.9-0.3-1.9-0.5-3.1-0.8c-1.2-0.3-2.2-0.5-3.1-0.8
			c-0.9-0.3-1.7-0.6-2.3-1.1c-0.6-0.4-1.1-0.9-1.4-1.5c-0.3-0.6-0.5-1.4-0.5-2.3c0-1,0.2-1.9,0.6-2.7c0.4-0.8,0.9-1.4,1.6-2
			c0.7-0.5,1.5-0.9,2.5-1.2c1-0.3,2-0.4,3.2-0.4c1.4,0,2.7,0.2,3.9,0.6c1.1,0.4,2.2,1.1,3.1,2L83.5,26.3z"/>
		<path d="M106.7,22.6v22.2h-1.6V34.2h-14v10.6h-1.6V22.6h1.6v10.1h14V22.6H106.7z"/>
		<path d="M121.4,45c-1.5,0-3-0.3-4.2-1c-1.3-0.6-2.4-1.5-3.3-2.5c-0.9-1-1.6-2.2-2.1-3.6c-0.5-1.4-0.8-2.7-0.8-4.2
			c0-1.5,0.3-2.9,0.8-4.3c0.5-1.4,1.3-2.6,2.2-3.6c0.9-1,2-1.9,3.3-2.5c1.3-0.6,2.7-0.9,4.1-0.9c1.5,0,3,0.3,4.2,1
			c1.3,0.7,2.4,1.5,3.3,2.6c0.9,1.1,1.6,2.3,2.1,3.6c0.5,1.3,0.8,2.7,0.8,4.1c0,1.5-0.3,2.9-0.8,4.3c-0.5,1.4-1.3,2.6-2.2,3.6
			c-0.9,1-2,1.9-3.3,2.5C124.3,44.7,122.9,45,121.4,45z M112.6,33.7c0,1.3,0.2,2.5,0.6,3.7c0.4,1.2,1,2.2,1.8,3.1
			c0.8,0.9,1.7,1.6,2.8,2.2c1.1,0.5,2.3,0.8,3.6,0.8c1.3,0,2.5-0.3,3.6-0.8s2-1.3,2.8-2.2c0.8-0.9,1.4-2,1.8-3.1
			c0.4-1.2,0.6-2.4,0.6-3.6c0-1.3-0.2-2.5-0.7-3.7c-0.4-1.2-1-2.2-1.8-3.1c-0.8-0.9-1.7-1.6-2.8-2.2c-1.1-0.5-2.2-0.8-3.5-0.8
			c-1.3,0-2.5,0.3-3.6,0.8c-1.1,0.6-2,1.3-2.8,2.2c-0.8,0.9-1.4,2-1.8,3.1S112.6,32.5,112.6,33.7z"/>
		<path d="M136.1,44.8V22.6h9.1c0.9,0,1.8,0.2,2.6,0.6c0.8,0.4,1.5,0.9,2.1,1.6c0.6,0.7,1,1.4,1.3,2.2c0.3,0.8,0.5,1.7,0.5,2.5
			c0,0.9-0.2,1.8-0.5,2.6c-0.3,0.8-0.7,1.6-1.3,2.2c-0.6,0.6-1.2,1.2-2,1.5c-0.8,0.4-1.6,0.6-2.6,0.6h-7.7v8.4H136.1z M137.7,34.9
			h7.7c0.7,0,1.4-0.2,2-0.5c0.6-0.3,1.1-0.7,1.5-1.2c0.4-0.5,0.7-1.1,0.9-1.8c0.2-0.7,0.3-1.3,0.3-2.1c0-0.7-0.1-1.4-0.4-2.1
			s-0.6-1.2-1.1-1.7c-0.4-0.5-1-0.9-1.6-1.2c-0.6-0.3-1.2-0.4-1.9-0.4h-7.5V34.9z"/>
		<path d="M162.8,44.8V22.6h1.6v20.8h13.3v1.4H162.8z"/>
		<path d="M187.9,22.6h1.4l9.4,22.2H197l-3.1-7.3h-10.6l-3.1,7.3h-1.7L187.9,22.6z M193.5,36.2l-4.9-11.6l-4.9,11.6H193.5z"/>
		<path d="M218.5,39c0,0.8-0.2,1.6-0.5,2.3c-0.3,0.7-0.7,1.3-1.3,1.8s-1.2,0.9-1.9,1.2c-0.7,0.3-1.5,0.4-2.3,0.4h-10.4V22.6h10.4
			c0.8,0,1.5,0.2,2.1,0.5c0.6,0.3,1.2,0.8,1.6,1.3s0.8,1.1,1,1.8c0.2,0.7,0.4,1.4,0.4,2.1c0,1.1-0.3,2.2-0.8,3.1s-1.3,1.6-2.3,2.1
			c1.3,0.4,2.3,1.1,3,2.1S218.5,37.7,218.5,39z M203.7,24v8.9h8.1c0.6,0,1.2-0.1,1.7-0.4c0.5-0.3,0.9-0.6,1.3-1
			c0.4-0.4,0.7-0.9,0.9-1.4c0.2-0.5,0.3-1.1,0.3-1.7c0-0.6-0.1-1.2-0.3-1.7s-0.5-1-0.8-1.4c-0.3-0.4-0.8-0.7-1.2-1
			c-0.5-0.2-1-0.4-1.6-0.4H203.7z M216.9,38.8c0-0.6-0.1-1.2-0.3-1.7c-0.2-0.6-0.5-1-0.9-1.5s-0.8-0.8-1.3-1
			c-0.5-0.3-1.1-0.4-1.6-0.4h-9v9.1h8.8c0.6,0,1.2-0.1,1.7-0.4c0.5-0.3,1-0.6,1.4-1c0.4-0.4,0.7-0.9,0.9-1.5
			C216.7,40,216.9,39.4,216.9,38.8z"/>
	</g>
</g>
</svg>
