<?xml version="1.0" encoding="utf-8"?>
<!-- Generator: Adobe Illustrator 16.0.0, SVG Export Plug-In . SVG Version: 6.00 Build 0)  -->
<!DOCTYPE svg PUBLIC "-//W3C//DTD SVG 1.1//EN" "http://www.w3.org/Graphics/SVG/1.1/DTD/svg11.dtd">
<svg version="1.1" id="Layer_1" xmlns="http://www.w3.org/2000/svg" xmlns:xlink="http://www.w3.org/1999/xlink" x="0px" y="0px"
	 width="251.3px" height="59px" viewBox="0 0 251.3 59" style="enable-background:new 0 0 251.3 59;" xml:space="preserve">
<style type="text/css">
<![CDATA[
	.st0{fill:#B72025;}
	.st1{fill:#FFFFFF;}
]]>
</style>
<g>
	<g>
		<path d="M74.2,39.7l0.9,3.3c0.2,0.3,0.5,0.6,1.1,0.9s1.1,0.5,1.9,0.7s1.4,0.3,2.2,0.3c1.7,0,2.9-0.3,3.7-0.9
			c0.7-0.6,1.1-1.5,1.1-2.5c0-0.8-0.2-1.4-0.7-2c-0.5-0.6-1.2-1.1-2.2-1.6c-1-0.5-2.3-1.1-4-1.7c-2.4-0.9-4.2-2-5.3-3.2
			c-1.1-1.2-1.7-2.8-1.7-4.8c0-1.3,0.4-2.5,1.2-3.5c0.8-1,2-1.8,3.4-2.3c1.4-0.6,3.1-0.8,4.9-0.8c1.4,0,2.6,0.1,3.7,0.3
			c1.1,0.2,2.1,0.5,3.2,0.9l0.8,0.3v5.6h-2.9l-1-3c-0.2-0.4-0.7-0.7-1.5-1c-0.8-0.3-1.7-0.4-2.7-0.4c-1.4,0-2.5,0.3-3.2,0.9
			C76.3,25.4,76,26.1,76,27c0,0.8,0.2,1.5,0.7,2.1c0.4,0.6,1,1,1.7,1.4c0.7,0.3,1.6,0.8,2.8,1.2l0.9,0.4c1.7,0.7,3.1,1.4,4.2,2
			c1.1,0.6,2,1.4,2.7,2.4c0.7,1,1.1,2.2,1.1,3.6c0,1.5-0.4,2.7-1.2,3.8c-0.8,1.1-2,2-3.5,2.6c-1.5,0.6-3.3,0.9-5.4,0.9
			c-1.6,0-3.2-0.2-4.9-0.6c-1.7-0.4-3.1-0.9-4.1-1.3v-5.7H74.2z"/>
		<path d="M93,44.6V13.2l-3.8-0.5v-2.2l7.7-1h0.1l1.1,0.8l0,10.7L98,25.2c1-0.9,2.4-1.8,4.1-2.6c1.7-0.8,3.4-1.2,5.2-1.2
			c1.9,0,3.5,0.4,4.6,1.1c1.1,0.7,1.8,1.9,2.3,3.4c0.4,1.5,0.6,3.5,0.6,6.1v12.6L118,45v2.4h-11.5V45l3-0.4V32
			c0-1.7-0.1-3.1-0.4-4.1c-0.2-1-0.7-1.7-1.4-2.2s-1.7-0.7-2.9-0.7c-1.1,0-2.2,0.2-3.4,0.7c-1.2,0.5-2.3,1-3.2,1.8v17.2l3.2,0.4v2.4
			H90.3V45L93,44.6z"/>
		<path d="M136.2,23.1c1.8,1.1,3.1,2.7,3.9,4.6c0.9,2,1.3,4.2,1.3,6.7c0,2.7-0.6,5-1.7,7c-1.2,2-2.7,3.5-4.6,4.5
			c-1.9,1-3.9,1.5-6.1,1.5c-2.7,0-4.9-0.6-6.6-1.7c-1.8-1.1-3.1-2.7-3.9-4.6c-0.9-2-1.3-4.2-1.3-6.7c0-2.7,0.6-5,1.7-6.9
			c1.2-2,2.7-3.5,4.6-4.5s3.9-1.6,6-1.6C132.2,21.4,134.4,22,136.2,23.1z M134.1,27.1c-1-1.9-2.6-2.9-4.8-2.9
			c-2.1,0-3.7,0.8-4.8,2.5c-1.1,1.6-1.6,4.1-1.6,7.3c0,3.2,0.5,5.8,1.5,7.7c1,1.9,2.6,2.9,4.8,2.9c4.2,0,6.3-3.3,6.3-9.8
			C135.6,31.6,135.1,29,134.1,27.1z"/>
		<path d="M151.4,47.2c-0.8-0.1-1.5-0.2-2.1-0.4l0.1,4.1v4.7l4.7,0.5v2.5h-13.3v-2.5l3.4-0.5V26.1l-3.3-0.9v-2.9l6.7-0.9h0.1l1,0.9
			v2.7c0.9-1,2-1.9,3.4-2.6c1.3-0.7,2.9-1.1,4.5-1.1c1.9,0,3.6,0.4,5.1,1.3s2.8,2.2,3.7,4c0.9,1.8,1.4,4.1,1.4,6.9
			c0,2.5-0.5,4.9-1.6,7c-1.1,2.1-2.6,3.8-4.7,5c-2,1.2-4.4,1.8-7,1.8C153,47.4,152.2,47.4,151.4,47.2z M149.5,43.5
			c0.2,0.4,0.7,0.7,1.6,0.9s1.8,0.4,2.8,0.4c1.5,0,2.8-0.4,3.9-1.1c1.1-0.7,2-1.9,2.7-3.5c0.7-1.6,1-3.6,1-6.1
			c0-2.1-0.3-3.8-0.9-5.2c-0.6-1.4-1.4-2.4-2.4-3c-1-0.7-2.2-1-3.5-1c-1.1,0-2.1,0.2-3,0.7c-0.9,0.4-1.7,1-2.2,1.5V43.5z"/>
		<path class="st0" d="M164.8,23.8v-2.4h11.4v2.4l-3.6,0.6l3.8,13.2l1.3,5.7l1.2-5.7l4.6-16.2h4.9l4.7,16.2l1.3,5.7l1.4-5.6
			l3.7-13.3l-3.5-0.6v-2.4h9.9v2.4l-2.6,0.6l-7.2,23h-4.8l-4.9-16.3l-1.2-5.4l-0.9,5.4l-4.8,16.3h-4.7l-7.5-23L164.8,23.8z"/>
		<path class="st0" d="M218.7,30.1c0-1.2-0.1-2.2-0.4-2.9c-0.3-0.7-0.8-1.2-1.5-1.5c-0.7-0.3-1.8-0.5-3.1-0.5
			c-2.6,0-5.3,0.6-8.1,1.9h0l-1.1-2.1c0.4-0.4,1.2-0.8,2.4-1.4c1.2-0.6,2.5-1.1,4-1.5c1.5-0.4,2.9-0.7,4.2-0.7c2.2,0,4,0.3,5.2,0.9
			c1.3,0.6,2.2,1.5,2.8,2.8c0.6,1.3,0.8,3,0.8,5.1v14.2h2.8v2.2c-2.2,0.5-3.9,0.8-5,0.8c-0.6,0-1.1-0.1-1.5-0.2
			c-0.3-0.1-0.6-0.3-0.7-0.7c-0.2-0.3-0.2-0.8-0.2-1.5V44c-0.8,0.8-1.9,1.6-3.2,2.3c-1.3,0.7-2.8,1.1-4.5,1.1c-1.5,0-2.8-0.3-4-0.8
			c-1.2-0.5-2.1-1.4-2.9-2.5c-0.7-1.1-1.1-2.5-1.1-4.2c0-2,0.7-3.7,2.1-5c1.4-1.3,3.3-2.3,5.6-2.9s4.8-0.9,7.6-0.9V30.1z
			 M218.7,33.7c-2.2,0-4.1,0.3-5.5,0.8c-1.4,0.5-2.5,1.2-3.1,2c-0.6,0.8-1,1.8-1,2.9c0,1.6,0.4,2.8,1.2,3.5s1.9,1.1,3.2,1.1
			c0.7,0,1.6-0.2,2.6-0.6c1-0.4,1.9-0.9,2.6-1.5V33.7z"/>
		<path class="st0" d="M227.4,28.1c1.1-2.1,2.6-3.7,4.7-4.9c2-1.2,4.4-1.8,7.2-1.8c1.3,0,2.7,0.1,4.1,0.4v-8.5l-4.6-0.5v-2.2
			l8.5-0.9h0.1l1.1,0.8v33.7h2.7v2.4c-1,0.2-1.9,0.4-2.6,0.6c-0.8,0.1-1.6,0.2-2.4,0.2c-0.6,0-1.1-0.1-1.4-0.2s-0.6-0.3-0.8-0.7
			c-0.2-0.3-0.3-0.8-0.3-1.5v-1.2c-0.9,1-2.1,1.9-3.4,2.5c-1.3,0.7-2.8,1-4.4,1c-1.9,0-3.6-0.5-5.1-1.4c-1.5-0.9-2.8-2.3-3.7-4.2
			c-0.9-1.9-1.4-4.1-1.4-6.8C225.8,32.5,226.3,30.2,227.4,28.1z M243.4,25.5c-0.2-0.4-0.8-0.7-1.6-1s-1.8-0.4-2.8-0.4
			c-2.3,0-4.1,0.9-5.5,2.6c-1.4,1.7-2.1,4.4-2.1,8c0,2.1,0.3,3.8,0.9,5.2c0.6,1.4,1.4,2.4,2.4,3c1,0.7,2.1,1,3.4,1
			c1.1,0,2.1-0.2,3.1-0.7c0.9-0.5,1.7-1,2.3-1.6V25.5z"/>
	</g>
	<g>
		<path d="M29.5,59C13.2,59,0,45.8,0,29.5C0,13.2,13.2,0,29.5,0C45.8,0,59,13.2,59,29.5c0,6.7-2.2,13-6.4,18.3l-1.6-1.2
			c3.9-4.9,5.9-10.8,5.9-17.1C57,14.3,44.7,2,29.5,2C14.3,2,2,14.3,2,29.5C2,44.7,14.3,57,29.5,57V59z"/>
		<g>
			<path class="st0" d="M29.8,28.1c-4.5,0-8.2-3.7-8.2-8.2s3.7-8.2,8.2-8.2c4.5,0,8.2,3.7,8.2,8.2S34.3,28.1,29.8,28.1z M29.8,12.3
				c-4.2,0-7.6,3.4-7.6,7.6c0,4.2,3.4,7.6,7.6,7.6c4.2,0,7.6-3.4,7.6-7.6C37.4,15.7,34,12.3,29.8,12.3z"/>
			<rect x="17" y="20.1" class="st0" width="25.9" height="25.9"/>
			<polygon class="st0" points="42.9,20.1 17,46 42.9,46 			"/>
		</g>
		<g>
			<g>
				<path d="M47.7,49.2c-0.1,0.3-0.4,0.5-0.7,0.5h-4.5l2.4,5.7c0.2,0.4,0,0.8-0.4,1l-2.1,0.9c-0.4,0.2-0.8,0-1-0.4l-2.3-5.4
					l-3.7,3.7c-0.1,0.1-0.3,0.2-0.5,0.2c-0.1,0-0.2,0-0.3-0.1c-0.3-0.1-0.5-0.4-0.5-0.7V36.8c0-0.3,0.2-0.6,0.5-0.7
					c0.1,0,0.2-0.1,0.3-0.1c0.2,0,0.4,0.1,0.5,0.2l12.2,12.2C47.8,48.6,47.9,49,47.7,49.2z"/>
				<path class="st1" d="M42.1,58.3c-0.7,0-1.3-0.4-1.6-1l-1.7-4.1l-2.7,2.7c-0.5,0.5-1.2,0.6-1.8,0.4c-0.6-0.3-1-0.9-1-1.6V36.8
					c0-0.7,0.4-1.3,1.1-1.6c0.2-0.1,0.4-0.1,0.6-0.1c0.5,0,0.9,0.2,1.2,0.5l12.1,12.1c0.5,0.5,0.6,1.2,0.4,1.9c-0.3,0.6-0.9,1-1.6,1
					h-3.1l1.8,4.4c0.4,0.9,0,1.8-0.9,2.2l-2.1,0.9C42.5,58.2,42.3,58.3,42.1,58.3z M39.4,49.8l2.7,6.5l1.8-0.8l-2.9-6.8h5.5L35,37.2
					v17L39.4,49.8z"/>
			</g>
		</g>
	</g>
</g>
</svg>
