<?xml version="1.0" encoding="utf-8"?>
<!-- Generator: Adobe Illustrator 16.0.0, SVG Export Plug-In . SVG Version: 6.00 Build 0)  -->
<!DOCTYPE svg PUBLIC "-//W3C//DTD SVG 1.1//EN" "http://www.w3.org/Graphics/SVG/1.1/DTD/svg11.dtd">
<svg version="1.1" id="Layer_1" xmlns="http://www.w3.org/2000/svg" xmlns:xlink="http://www.w3.org/1999/xlink" x="0px" y="0px"
	 width="55.6px" height="54.8px" viewBox="0 0 55.6 54.8" enable-background="new 0 0 55.6 54.8" xml:space="preserve">
<g>
	
		<linearGradient id="SVGID_1_" gradientUnits="userSpaceOnUse" x1="-988.7854" y1="-163.814" x2="-959.0701" y2="-184.9769" gradientTransform="matrix(1 0 0 -1 1002 -146.6006)">
		<stop  offset="0" style="stop-color:#8FC740"/>
		<stop  offset="0.9091" style="stop-color:#111709"/>
		<stop  offset="1" style="stop-color:#020202"/>
	</linearGradient>
	<path fill="url(#SVGID_1_)" d="M49.6,12.3c0,0,0.7,0.3,1.4,1.3s1.7,2.5,2.6,4.6c0.5,1.1,0.9,2.3,1.2,3.6c0.1,0.3,0.2,0.7,0.3,1
		c0.101,0.4,0.101,0.7,0.2,1.1c0,0.2,0.1,0.4,0.1,0.6v0.1v0.1l0,0v0.1v0.3c0,0.4,0.101,0.8,0.101,1.1c0,0.4,0.1,0.8,0.1,1.2
		s0,0.9,0,1.301c0,0.399,0,0.899,0,1.299c0,0.5-0.1,0.9-0.1,1.301c-0.101,0.5-0.101,0.9-0.2,1.4c0,0.5-0.2,0.899-0.3,1.399
		C54.9,34.6,54.8,35,54.7,35.5C54.6,36,54.4,36.4,54.2,36.9c-1.301,3.801-3.5,7.7-7,10.801C46.8,48.1,46.3,48.5,45.9,48.9
		c-0.5,0.301-0.899,0.7-1.399,1l-0.7,0.5c-0.3,0.2-0.5,0.301-0.8,0.5c-0.5,0.301-1,0.6-1.601,0.9c-0.5,0.3-1.1,0.5-1.699,0.699
		L39,53C38.7,53.1,38.4,53.201,38.1,53.3c-0.6,0.199-1.2,0.4-1.7,0.6c-0.6,0.1-1.199,0.301-1.8,0.4L33.7,54.5L32.8,54.6
		c-0.6,0.101-1.2,0.101-1.9,0.2c-0.6,0-1.199,0-1.899,0h-0.9l-1-0.1c-2.6-0.101-5-0.601-7.5-1.4C14.7,51.701,10.2,48.9,6.7,44.9
		c-1.801-2-3.2-4.199-4.301-6.6c-1.1-2.4-1.8-5-2.199-7.6V30.6v-0.2v-0.199v-0.5L0.1,28.8l-0.1-1v-1c0-0.7,0-1.3,0.1-2
		c0.101-0.6,0.2-1.3,0.3-1.9c0.4-2.6,1.101-5.1,2.2-7.4c0.5-1.2,1.2-2.2,1.8-3.3c0.301-0.5,0.7-1,1.101-1.5L6,10l0.6-0.7
		C7,8.8,7.4,8.4,7.8,7.9c0.4-0.4,0.9-0.8,1.3-1.2l0.7-0.6l0.7-0.5C11,5.2,11.4,4.9,11.9,4.6C15.8,2,20.1,0.6,24,0.1
		c0.2,0,0.5-0.1,0.7-0.1H24.9c0,0,0.2,0,0.101,0l0,0h0.1h0.4C26,0,26.4,0,26.9,0s0.9,0,1.4,0s1,0.1,1.4,0.1
		c0.5,0,0.899,0.1,1.399,0.1s0.9,0.2,1.3,0.3c0.801,0.2,1.7,0.3,2.4,0.6c0.8,0.3,1.5,0.5,2.2,0.8c0.7,0.3,1.3,0.6,2,0.9
		c1.3,0.6,2.3,1.3,3.3,1.9c0.5,0.3,0.9,0.7,1.3,1C44,6,44.4,6.3,44.7,6.6C45.4,7.2,45.9,7.7,46.3,8.2c0.9,0.9,1.2,1.4,1.2,1.4
		l-0.2,0.2c0,0-0.5-0.5-1.4-1.2c-0.5-0.4-1-0.9-1.699-1.3C43.8,7.1,43.4,6.8,43,6.6c-0.4-0.2-0.8-0.6-1.3-0.8
		c-0.5-0.2-1-0.5-1.5-0.8S39.1,4.5,38.5,4.3c-0.601-0.2-1.2-0.5-1.9-0.7C35.9,3.4,35.2,3.2,34.5,3S33,2.8,32.2,2.6
		C31.4,2.4,30.6,2.4,29.8,2.4c-0.4,0-0.8,0-1.2,0c-0.399,0-0.899,0.1-1.3,0.1c-0.5,0-0.9,0.1-1.4,0.1H25.5H25.4l0,0
		c-0.1,0,0.101,0,0,0H25.2l-0.7,0.1c-3.601,0.6-7.3,2-10.7,4.4c-3.3,2.5-6.4,5.7-8.3,9.8c-1.101,2-1.7,4.2-2.2,6.5
		C3.2,24,3.1,24.6,3,25.1C2.9,25.7,2.9,26.2,2.9,26.8l-0.1,0.9v0.9V29.5V30v0.201v0.1c0,0,0,0.1,0,0v0.1C3,31.6,3.1,32.8,3.4,34
		C3.6,34.6,3.6,35.201,3.8,35.8L4.4,37.5C5.3,39.8,6.4,42,7.9,44C9.4,45.9,11.2,47.8,13.2,49.201c2.1,1.399,4.3,2.6,6.6,3.399
		c0.6,0.2,1.2,0.3,1.8,0.5c0.601,0.101,1.2,0.3,1.8,0.399C24,53.6,24.6,53.701,25.2,53.8c0.6,0,1.199,0,1.8,0H27.9l0.9-0.1
		C29.4,53.6,30,53.6,30.6,53.5c0.601-0.1,1.2-0.199,1.7-0.299L33.2,53l0.8-0.299c0.6-0.201,1.1-0.301,1.7-0.5
		c0.5-0.201,1.1-0.5,1.6-0.701c0.3-0.1,0.5-0.199,0.8-0.299l0.7-0.4c0.5-0.301,1-0.5,1.5-0.801c0.5-0.299,0.9-0.6,1.4-0.899
		c0.199-0.2,0.5-0.3,0.699-0.5L43,48.1c0.399-0.3,0.8-0.7,1.3-1c0.4-0.399,0.8-0.7,1.1-1.101c3-2.899,5.101-6.399,6.4-9.799
		c0.2-0.4,0.3-0.801,0.5-1.301c0.1-0.4,0.2-0.9,0.4-1.3c0.1-0.399,0.3-0.8,0.3-1.3c0.1-0.4,0.1-0.801,0.2-1.301
		c0.199-0.799,0.199-1.6,0.3-2.399c0-0.399,0.1-0.8,0.1-1.2s0-0.8,0-1.2c0-3-0.6-5.6-1.2-7.7C51.8,16.4,51,14.8,50.5,13.8
		C49.9,12.8,49.6,12.3,49.6,12.3L49.6,12.3z"/>
	<g>
		<path fill="#FFFFFF" d="M28.8,35.9C28.8,35.9,28.9,35.9,28.8,35.9L28.8,35.9z"/>
	</g>
	<g>
		<g>
			<path d="M48.3,11.6c-0.4,0-0.8-0.1-1.3,0c-0.4,0.1-0.9,0.2-1.3,0.4c-0.4,0.2-0.801,0.5-1.2,0.9c-0.101,0.1-0.2,0.2-0.3,0.3
				c0,0.1-0.101,0.1-0.101,0.2L44,13.6C43.9,13.7,43.9,13.8,43.8,14c-0.1,0.1-0.1,0.2-0.1,0.4c-0.7,2.1-1.5,4.4-2.301,7
				c-0.8,2.6-1.8,5.3-2.699,8.301c-0.2,0.699-0.5,1.5-0.7,2.199c-0.101,0.2-0.101,0.4-0.2,0.6L37.7,32.8
				c0,0.1-0.101,0.199-0.101,0.3c-0.1,0.2-0.1,0.3-0.2,0.399l0,0l0,0c-0.1-0.1-0.1-0.299-0.199-0.5c0-0.1,0-0.199-0.101-0.299
				L37,32.4c0-0.199-0.101-0.4-0.101-0.6c-0.199-0.801-0.3-1.6-0.5-2.4C35.7,26.1,35,22.7,34.3,19.2c0-0.2-0.1-0.5-0.2-0.7
				c0-0.1-0.1-0.3-0.2-0.4c-0.1-0.1-0.1-0.3-0.3-0.5c-0.1-0.1-0.2-0.2-0.399-0.3c-0.101,0-0.101,0-0.2-0.1c-0.101,0-0.101,0-0.2,0
				s-0.1,0-0.2,0c-0.1,0-0.1,0-0.2,0.1C32.2,17.4,32.1,17.5,32,17.6L31.9,17.7l-0.1,0.1c-0.1,0.2-0.2,0.3-0.2,0.4
				c-0.1,0.1-0.1,0.3-0.1,0.4c-0.101,0.3-0.101,0.5-0.2,0.7L31.2,20C31.1,20.4,31,20.9,30.9,21.3C30.5,23,30.1,24.8,29.7,26.5
				c-0.301,1.4-0.601,2.701-0.9,4.1c-0.7-3.4-1.3-6.7-2-9.9c-0.1-0.4-0.2-0.8-0.2-1.2c0-0.2-0.1-0.5-0.2-0.8
				c0-0.1-0.1-0.3-0.199-0.4C26.1,18.1,26,18,25.8,17.7c-0.1-0.1-0.3-0.3-0.6-0.4c-0.101,0-0.2-0.1-0.2-0.1c-0.101,0-0.2,0-0.3,0
				c-0.2,0-0.4,0-0.5,0.1c-0.101,0-0.2,0.1-0.2,0.1c-0.101,0-0.101,0.1-0.2,0.1c-0.1,0.1-0.2,0.1-0.2,0.2l-0.1,0.1h-0.3
				c0,0.1-0.101,0.1-0.101,0.2c-0.3,0.4-0.3,0.6-0.399,0.9c0,0.1-0.101,0.2-0.101,0.4l-0.1,0.3c0,0.2-0.101,0.4-0.101,0.6
				c-0.399,1.6-0.8,3.1-1.1,4.6c-0.4,1.5-0.7,3-1.1,4.401c0,0.199-0.101,0.299-0.101,0.5c-0.2-0.801-0.5-1.5-0.7-2.201
				c-0.3-1-0.6-2-0.899-2.9c-0.101-0.5-0.3-0.9-0.4-1.3c-0.1-0.2-0.1-0.4-0.2-0.6c0-0.1-0.1-0.3-0.1-0.4c-0.1-0.1-0.1-0.3-0.2-0.4
				c-0.2-0.5-0.5-1-1-1.5c-0.2-0.2-0.6-0.5-0.899-0.6c-0.4-0.2-0.801-0.3-1.301-0.2c-0.199,0-0.5,0.1-0.699,0.1
				c-0.101,0-0.2,0.1-0.301,0.1c0,0-0.1,0-0.1,0.1c-0.1,0-0.1,0.1-0.2,0.1c-0.1,0.1-0.2,0.1-0.3,0.2l-0.1,0.1l0,0l0,0L12.6,20.4l0,0
				l-0.1,0.1l0,0c-0.2,0.2-0.4,0.3-0.5,0.5c-0.601,0.6-0.9,0.9-0.9,0.9l2.7,2.7c0,0,0.3-0.3,0.8-0.8c0,0,0,0,0,0.1
				c0.101,0.2,0.101,0.4,0.2,0.6c0.1,0.4,0.3,0.8,0.4,1.3c0.3,0.9,0.6,1.9,1,2.901c0.399,1,0.699,2.1,1.1,3.299
				c0.1,0.301,0.2,0.601,0.3,0.9c0.101,0.1,0.101,0.301,0.2,0.5l0.1,0.2v0.101L18,33.9c0.1,0.2,0.2,0.4,0.3,0.7
				c0.1,0.2,0.3,0.5,0.7,0.8c0.1,0.1,0.2,0.2,0.399,0.301c0.101,0,0.2,0.1,0.301,0.1c0.1,0,0.199,0.1,0.3,0.1c0.2,0,0.5,0,0.7,0
				c0.1,0,0.199-0.1,0.3-0.1c0.1,0,0.2-0.1,0.3-0.1c0.3-0.201,0.5-0.4,0.6-0.601C22,35,22,34.9,22.1,34.9
				c0-0.1,0.101-0.199,0.101-0.199c0.1-0.301,0.199-0.5,0.3-0.701c0-0.1,0.1-0.199,0.1-0.299V33.5v-0.1c0.101-0.3,0.101-0.699,0.2-1
				c0.1-0.699,0.3-1.4,0.4-2.1c0.3-1.4,0.6-2.9,0.899-4.4c0.2-0.8,0.3-1.6,0.5-2.5c0.601,2.7,1.3,5.6,2,8.4
				c0.101,0.4,0.2,0.9,0.3,1.3L27,33.4v0.2c0,0.101,0,0.101,0.1,0.2c0.101,0.3,0.2,0.5,0.3,0.9c0,0,0,0.1,0.101,0.1
				c0,0,0.1,0.1,0.1,0.199c0.101,0.101,0.2,0.201,0.4,0.4c0.1,0,0.1,0.1,0.2,0.1c0.1,0,0.1,0.101,0.199,0.101c0.2,0,0.301,0,0.5,0
				c0.301-0.101,0.5-0.2,0.7-0.399C29.8,35,29.9,34.8,30,34.6c0.1-0.2,0.1-0.3,0.2-0.399c0-0.101,0.1-0.301,0.1-0.4
				s0.1-0.301,0.1-0.4l0.101-0.699c0.3-1.801,0.7-3.5,1-5.301c0.3-1.8,0.7-3.5,1-5.3c0.1-0.4,0.2-0.9,0.3-1.3l0.1-0.4
				c0.801,3.3,1.601,6.5,2.4,9.6c0.2,0.801,0.4,1.601,0.6,2.4C35.9,32.6,36,32.8,36,33l0.1,0.301c0,0.1,0.101,0.199,0.101,0.3
				c0.1,0.2,0.199,0.399,0.3,0.7c0.1,0.1,0.2,0.199,0.3,0.4c0.1,0.1,0.2,0.1,0.3,0.199c0.101,0,0.2,0.1,0.4,0.1
				c0.1,0,0.3-0.1,0.3-0.1c0.1-0.1,0.2-0.1,0.2-0.199c0.1-0.101,0.2-0.201,0.3-0.301c0.1-0.199,0.2-0.4,0.3-0.6
				c0-0.1,0.101-0.2,0.101-0.301l0.1-0.299C38.9,33,38.9,32.8,39,32.6c0.2-0.8,0.399-1.5,0.7-2.2c0.899-3,1.699-5.8,2.5-8.3
				c0.8-2.6,1.5-4.9,2.1-7c0-0.1,0.1-0.3,0.1-0.4c0.101-0.1,0.101-0.2,0.2-0.3l0.101-0.2c0-0.1,0.1-0.1,0.1-0.2
				c0.1-0.1,0.2-0.2,0.2-0.3c0.3-0.4,0.7-0.7,1.1-0.9c0.4-0.2,0.8-0.4,1.2-0.5c0.4-0.1,0.8-0.1,1.2,0c2.899,0.3,5.1,8.2,5.1,8.2
				S51.7,11.8,48.3,11.6z M14.1,23.1L14.1,23.1C14.1,23.1,14,23,14.1,23.1z M15.1,23L15.1,23L15.1,23L15.1,23L15.1,23z M19.2,32.9
				L19.2,32.9C19.2,32.8,19.2,32.9,19.2,32.9L19.2,32.9z M23.7,19.5L23.7,19.5L23.7,19.5z M28,33.201L28,33.201L28,33.201z
				 M32.4,18.7L32.4,18.7L32.4,18.7z M37.2,33.5L37.2,33.5L37.2,33.5z"/>
			<g>
				<g>
					<circle cx="33.4" cy="40.3" r="2.6"/>
				</g>
				<g>
					<circle cx="24.6" cy="40.3" r="2.6"/>
				</g>
			</g>
		</g>
	</g>
</g>
</svg>
